<svg id="logo-coolhow" xmlns="http://www.w3.org/2000/svg" viewBox="0 0 109.31 106.32"><defs><style>.cls-1{fill:#e7bf18;}.cls-2{fill:#fff;}</style></defs><title>coolhowLogo</title><path class="cls-1" d="M69,94.15a26,26,0,0,1-2,3.6l8.27,1.35,0,0a1.54,1.54,0,0,1,.58-.44,1.62,1.62,0,0,1,.7-.14h.08l.41-.91L69,94.15Z" transform="translate(-12.28 -14.24)"/><path class="cls-1" d="M31.28,114a2.23,2.23,0,0,1-2-1.8l0,0-.53,7.13.08,0a.94.94,0,0,1,.5.5,1,1,0,0,1,.1.54l0,.15,1.1-.06,2.71-7.92A2.11,2.11,0,0,1,31.28,114Z" transform="translate(-12.28 -14.24)"/><path class="cls-1" d="M26.87,109.71l.07-.09Z" transform="translate(-12.28 -14.24)"/><path class="cls-1" d="M84.77,88.91,70.1,87.16a30.3,30.3,0,0,0,.58-5.08l-1.22.25c2.29-2.4,7.64-4.74,10.09-5.74.86-.35,1-.39,1.43-.56a2.08,2.08,0,0,0,1.16-.9c.63-1.25-.25-3.27-.29-3.35a85.68,85.68,0,0,1-12.77-.85,1.52,1.52,0,0,1-.45-1.23,1.42,1.42,0,0,1,.42-.94.16.16,0,0,0,.07-.21c-.1-.19-.58,0-.76,0a1.59,1.59,0,0,0-1,2,6.31,6.31,0,0,0-2.49-.31,3.2,3.2,0,0,0-2.13.74l-.06.07.05.08a3,3,0,0,0,2.49,1.28,3.84,3.84,0,0,0,1.44-.21A13.61,13.61,0,0,1,64,75.47a11.59,11.59,0,0,1-6.12,2.92h0l0,0a23.24,23.24,0,0,1-10.47,7.13c-5.59,2-11.22,2.1-15.06.33l-.08,0-.06.07a12.7,12.7,0,0,1-9,4.11c-5.64,0-10.22-4.1-10.22-9.15,0-4.73,4-8.64,9.2-9.1a14.08,14.08,0,0,1,3.48.11l-2.87.8a2.91,2.91,0,0,0,2.08,1h.12a4.21,4.21,0,0,0,1.85-.47A2.94,2.94,0,0,1,28,72.88a2.16,2.16,0,0,1,.76.14l.3.1-.15-.28a4.56,4.56,0,0,0-3.76-2.22,5.82,5.82,0,0,0-3,.77c-5.3.45-9.79,4.64-9.79,9.5,0,6,4.83,10,10.59,10a11.72,11.72,0,0,0,3.51-.56l-8.8,27,0,.07.05.05a1.36,1.36,0,0,1,.29,1,1.3,1.3,0,0,1-.3.73l-.1.12,1.14.57L34,97.6l-7.07,12,.06-.1v.26c0,1,.5,1.83,1.12,1.83s.91-.53,1.06-1.26a7.88,7.88,0,0,0,.94.2v.51c0,1.06.52,1.92,1.17,1.92s1.17-.86,1.17-1.92v-.56a6.54,6.54,0,0,0,1-.26c.12.79.56,1.36,1.08,1.36s1.12-.82,1.12-1.83V109a6,6,0,0,0,1-1.24l2-1.21-1.12,1.75a6.84,6.84,0,0,1-.89,1.12v.25h0v.12a4.65,4.65,0,0,1,0,.66,21.21,21.21,0,0,0,5.25.7l.81,0a29.06,29.06,0,0,0,15.83-5.8A31.47,31.47,0,0,0,66,97.55a25.76,25.76,0,0,0,2-3.43L63,93.87l5.37-.68L83.23,91.3v-.09a1.13,1.13,0,0,1,.46-.72,1.4,1.4,0,0,1,.87-.25h.1l.2-1.34Z" transform="translate(-12.28 -14.24)"/><path class="cls-1" d="M64.89,59.08a.16.16,0,0,1-.13-.06.18.18,0,0,1,0-.25c3.72-3.37,8.66-4.23,13.43-5.06C86.08,52.34,93.53,51,93.53,38.14a.18.18,0,0,1,.36,0c0,13.2-7.59,14.52-15.62,15.92-4.72.82-9.6,1.67-13.25,5A.18.18,0,0,1,64.89,59.08Z" transform="translate(-12.28 -14.24)"/><rect class="cls-1" x="35.85" y="15.91" width="0.35" height="57.15"/><path class="cls-1" d="M60.28,30.15a12,12,0,1,1-12-11.95A11.95,11.95,0,0,1,60.28,30.15Z" transform="translate(-12.28 -14.24)"/><rect class="cls-1" x="40.11" y="41.91" width="0.35" height="46.8" transform="translate(-32.16 3.45) rotate(-19.97)"/><path class="cls-1" d="M44.25,43.32a12,12,0,1,1-12-11.95A11.95,11.95,0,0,1,44.25,43.32Z" transform="translate(-12.28 -14.24)"/><path class="cls-1" d="M105.66,26.19a11.95,11.95,0,1,1-12-12A11.95,11.95,0,0,1,105.66,26.19Z" transform="translate(-12.28 -14.24)"/><path class="cls-2" d="M12.28,36.45c0-4.27,2.72-6.84,6.87-6.84a11.11,11.11,0,0,1,4.43.71v2.8H21.82c-.23-1.32-1.17-1.73-2.72-1.73-2.44,0-3.94,1.68-3.94,5.09s1.27,5,3.89,5a3.64,3.64,0,0,0,3.26-1.53h1.4v2A8,8,0,0,1,19,43.24C14.54,43.24,12.28,40.67,12.28,36.45Z" transform="translate(-12.28 -14.24)"/><path class="cls-2" d="M61.18,41.46h1a.76.76,0,0,0,.71-.69V27.67a.82.82,0,0,0-.71-.71h-1V25.28h4c.36,0,.51.23.51.69v14.8a.74.74,0,0,0,.69.69h1v1.63h-6.1V41.46Z" transform="translate(-12.28 -14.24)"/><path class="cls-2" d="M72.42,41.46h1.86v1.63H68V41.46h1a.77.77,0,0,0,.69-.69V27.67A.82.82,0,0,0,69,27H67.92V25.28h4c.33,0,.51.23.51.69v5.77a7.84,7.84,0,0,1,5.24-2.14c1.91,0,3.48.69,3.48,3.31v7.86a.74.74,0,0,0,.66.69h.84v1.63H76.56V41.46h1.83V33.83c0-1.65-.74-2.06-2.08-2.06A7.65,7.65,0,0,0,72.42,33Z" transform="translate(-12.28 -14.24)"/><path class="cls-2" d="M102.91,32.3a1.07,1.07,0,0,0-.94-.81h-.54V29.76H107v1.73h-1.53l2.24,8.21h0l2.87-9.94H113l2.87,9.94h0L117.75,33c.28-1,.07-1.48-.81-1.48h-.64V29.75h5.29v1.73h-.48a1.05,1.05,0,0,0-1,.84l-3.13,10.76h-2.59l-2.85-9.74h0l-2.87,9.74H106Z" transform="translate(-12.28 -14.24)"/></svg>