<?xml version="1.0" standalone="no"?><!DOCTYPE svg PUBLIC "-//W3C//DTD SVG 1.1//EN" "http://www.w3.org/Graphics/SVG/1.1/DTD/svg11.dtd"><svg width="100%" height="100%" viewBox="0 0 942 942" version="1.1" xmlns="http://www.w3.org/2000/svg" xmlns:xlink="http://www.w3.org/1999/xlink" xml:space="preserve" style="fill-rule:evenodd;clip-rule:evenodd;stroke-linejoin:round;stroke-miterlimit:1.41421;"><g><path d="M470.606,912.633c-243.738,0 -442.032,-198.294 -442.032,-442.032c0,-243.735 198.294,-442.028 442.032,-442.028c243.739,0 442.032,198.293 442.032,442.028c0,243.738 -198.293,442.032 -442.032,442.032ZM803.373,137.835c-88.885,-88.885 -207.064,-137.835 -332.767,-137.835c-125.702,0 -243.882,48.95 -332.766,137.835c-88.886,88.883 -137.84,207.063 -137.84,332.766c0,125.706 48.954,243.886 137.84,332.769c88.884,88.885 207.064,137.836 332.766,137.836c125.703,0 243.882,-48.951 332.767,-137.836c88.886,-88.883 137.838,-207.063 137.838,-332.769c0,-125.703 -48.952,-243.883 -137.838,-332.766Z" style="fill:#ea4524;fill-rule:nonzero;"/><path d="M73.486,474.296c-5.382,4.804 -9.033,7.203 -10.955,7.203l0,8.651l29.144,0l0,-8.651l-15.567,0c2.497,-1.303 5.665,-4.034 9.497,-8.183c3.833,-4.154 5.75,-8.726 5.75,-13.721c0,-4.209 -1.348,-7.374 -4.048,-9.5c-2.7,-2.123 -6.163,-3.185 -10.393,-3.185c-4.4,0 -7.514,0.48 -9.34,1.441c-1.826,0.961 -3.699,2.403 -5.621,4.324l5.766,5.764c1.922,-2.304 4.613,-3.46 8.071,-3.46c3.651,0 5.959,1.013 6.92,3.03c0.96,2.017 1.009,4.034 0.143,6.051c-0.865,2.021 -3.988,5.429 -9.367,10.236Z" style="fill:#ea4524;fill-rule:nonzero;"/><path d="M120.673,478.187c-1.441,2.595 -3.113,3.89 -5.017,3.89c-1.941,0 -3.632,-1.295 -5.072,-3.89c-1.441,-2.595 -2.163,-5.816 -2.163,-9.659c0,-3.843 0.722,-7.059 2.163,-9.654c1.44,-2.595 3.113,-3.895 5.016,-3.895c1.941,0 3.632,1.3 5.073,3.895c1.44,2.595 2.163,5.811 2.163,9.654c0,3.843 -0.723,7.064 -2.163,9.659ZM115.629,446.91c-4.805,0 -8.649,2.065 -11.531,6.196c-2.884,4.133 -4.323,9.276 -4.323,15.422c0,6.131 1.439,11.269 4.323,15.408c2.882,4.141 6.726,6.214 11.531,6.214c4.822,0 8.672,-2.066 11.543,-6.198c2.875,-4.13 4.309,-9.273 4.309,-15.424c0,-6.146 -1.434,-11.289 -4.309,-15.422c-2.871,-4.131 -6.721,-6.196 -11.543,-6.196Z" style="fill:#ea4524;fill-rule:nonzero;"/><path d="M833.832,490.15l0,-43.27l-8.618,0l0,0.03l-11.532,11.529l5.765,5.768l5.767,-5.768l0,31.711l8.618,0Z" style="fill:#ea4524;fill-rule:nonzero;"/><path d="M861.561,472.016l-10.52,0l10.52,-13.776l0,13.776ZM870.181,472.016l0,-25.136l-8.62,0l0,0.058l-19.601,24.791l0.259,0.287l-0.286,0l0,8.618l19.628,0l0,9.516l8.62,0l0,-9.516l5.822,0l0,-8.618l-5.822,0Z" style="fill:#ea4524;fill-rule:nonzero;"/><path d="M193.213,702.871l-11.338,-15.04l11.421,-8.61l11.421,15.144c3.06,4.356 2.87,7.928 -0.574,10.711c-3.957,2.797 -7.6,2.06 -10.93,-2.205ZM211.621,714.77c10.313,-7.774 10.744,-17.93 1.295,-30.463l-17.656,-23.415l-53.713,40.496l8.099,10.743l22.202,-16.738l9.586,12.712c9.43,12.509 19.492,14.729 30.187,6.665Z" style="fill:#ea4524;fill-rule:nonzero;"/><path d="M247.844,779.864l-15.774,-12.589l23.94,-13.597l-8.166,26.186ZM198.668,771.022l11.215,8.953l9.591,-5.545l23.829,19.026l-3.281,10.579l11.21,8.89l20.946,-69.293l-10.514,-8.394l-62.996,35.784Z" style="fill:#ea4524;fill-rule:nonzero;"/><path d="M343.23,806.627c-2.108,4.365 -5.651,5.485 -10.629,3.365l-17.203,-7.67l5.824,-13.063l17.324,7.721c4.788,2.328 6.35,5.545 4.684,9.647ZM340.851,784.208l-26.789,-11.938l-27.384,61.443l12.289,5.478l11.317,-25.397l11.225,5.003l3.385,31.949l14.091,6.279l-3.381,-33.616c8.623,0.929 14.909,-3.045 18.864,-11.918c5.258,-11.796 0.718,-20.893 -13.617,-27.283Z" style="fill:#ea4524;fill-rule:nonzero;"/><path d="M381.124,813.109l22.073,3.934l-9.6,53.862l13.246,2.36l9.598,-53.862l22.077,3.934l2.202,-12.361l-57.397,-10.229l-2.199,12.362Z" style="fill:#ea4524;fill-rule:nonzero;"/><path d="M465.018,811.2l1.091,67.302l13.409,-0.215l-1.091,-67.303l-13.409,0.216Z" style="fill:#ea4524;fill-rule:nonzero;"/><path d="M551.694,834.766c-5.128,-2.244 -10.54,-3.146 -16.232,-2.703c-5.455,0.096 -9.08,-0.602 -10.876,-2.097c-1.796,-1.491 -2.191,-3.623 -1.182,-6.393c1.009,-2.771 4.159,-4.645 9.451,-5.621c5.292,-0.977 9.735,0.028 13.327,3.009l7.189,-10.448c-3.482,-2.395 -7.051,-4.018 -10.703,-4.862c-3.654,-0.846 -8.551,-0.702 -14.696,0.433c-5.291,0.977 -10.117,3.7 -14.473,8.168c-4.359,4.469 -6,9.631 -4.918,15.479c1.194,6.47 4.242,10.619 9.139,12.449c4.898,1.834 10.049,2.556 15.451,2.165c5.987,-0.499 9.941,0.366 11.856,2.599c1.918,2.228 2.378,4.727 1.385,7.494c-0.992,2.77 -4.43,4.695 -10.31,5.78c-7.166,0.717 -12.542,-0.419 -16.134,-3.404l-7.192,10.452c3.485,2.395 7.448,4.094 11.887,5.098c4.441,1.004 9.735,0.941 15.882,-0.196c6.466,-1.195 11.779,-4.153 15.941,-8.873c4.158,-4.719 5.75,-9.726 4.772,-15.02c-1.248,-6.761 -4.438,-11.265 -9.564,-13.509Z" style="fill:#ea4524;fill-rule:nonzero;"/><path d="M632.613,817.322l-18.339,8.426l-1.381,-27.496l19.72,19.07ZM598.965,784.913l3.637,72.359l13.04,-5.995l-0.638,-11.054l27.708,-12.736l7.974,7.689l12.982,-6.015l-52.479,-49.868l-12.224,5.62Z" style="fill:#ea4524;fill-rule:nonzero;"/><path d="M691.447,725.094l27.147,32.251l-59.397,-5.102l-3.429,2.885l43.318,51.467l10.292,-8.666l-26.858,-31.906l58.763,5.051l3.776,-3.177l-43.319,-51.465l-10.293,8.662Z" style="fill:#ea4524;fill-rule:nonzero;"/><path d="M786.398,685.284c-5.575,-4.022 -10.992,-5.075 -16.25,-3.158c-5.257,1.922 -9.791,5.011 -13.601,9.265c-3.877,3.839 -6.98,5.84 -9.308,5.999c-2.332,0.163 -4.088,-1.105 -5.274,-3.803c-1.184,-2.703 -0.203,-6.234 2.946,-10.595c3.151,-4.365 7.056,-6.709 11.714,-7.032l-2.023,-12.52c-4.174,0.673 -7.874,1.965 -11.098,3.878c-3.225,1.914 -6.665,5.401 -10.32,10.467c-3.151,4.366 -4.758,9.667 -4.82,15.91c-0.063,6.242 2.319,11.101 7.142,14.586c5.332,3.85 10.402,4.743 15.209,2.682c4.807,-2.06 9.027,-5.098 12.66,-9.112c3.986,-4.497 7.443,-6.602 10.369,-6.315c2.926,0.288 4.986,1.774 6.18,4.461c1.194,2.687 0.043,6.457 -3.457,11.305c-4.685,5.465 -9.357,8.363 -14.016,8.686l2.023,12.521c4.173,-0.674 8.213,-2.181 12.116,-4.524c3.906,-2.344 7.685,-6.048 11.345,-11.118c3.848,-5.33 5.644,-11.142 5.389,-17.428c-0.254,-6.286 -2.563,-11.006 -6.926,-14.155Z" style="fill:#ea4524;fill-rule:nonzero;"/><path d="M312.266,171.701l-16.161,-35.512l27.655,12.048l9.079,-28.766l16.203,35.491l12.244,-5.573l-27.864,-61.224l-4.081,1.857l-12.826,42.298l-40.277,-18.131l-4.082,1.858l27.863,61.226l12.247,-5.572Z" style="fill:#ea4524;fill-rule:nonzero;"/><path d="M434.045,134.007l-2.213,-12.362l-35.313,6.316l-2.694,-15.053l26.53,-4.744l-2.199,-12.318l-26.533,4.746l-2.527,-14.127l35.406,-6.33l-2.211,-12.361l-48.64,8.743l11.833,66.173l48.561,-8.683Z" style="fill:#ea4524;fill-rule:nonzero;"/><path d="M476.128,78.715l12.448,0.706c11.909,0.677 17.495,7.733 16.763,21.167c-0.793,13.429 -7.144,19.822 -19.055,19.174l-12.449,-0.708l2.293,-40.339ZM518.772,101.351c1.274,-22.416 -8.539,-34.217 -29.43,-35.405l-25.879,-1.471l-3.819,67.204l25.878,1.47c20.893,1.188 31.979,-9.411 33.25,-31.798Z" style="fill:#ea4524;fill-rule:nonzero;"/><path d="M572.557,78.526l-13.02,-3.207l-16.098,65.361l13.019,3.207l16.099,-65.361Z" style="fill:#ea4524;fill-rule:nonzero;"/><path d="M630.231,118.087l-1.618,27.384l-18.339,-8.419l19.957,-18.965ZM599.77,147.034l27.714,12.722l-0.632,11.057l13.018,5.928l3.632,-72.3l-12.227,-5.613l-52.518,49.91l13.043,5.987l7.97,-7.691Z" style="fill:#ea4524;fill-rule:nonzero;"/><path d="M88.259,552.518c5.927,27.701 14.78,54.329 26.251,79.525l26.118,-11.591c-10.673,-23.408 -18.909,-48.146 -24.422,-73.885l-27.947,5.951Z" style="fill:#ea4524;fill-rule:nonzero;"/><path d="M243.283,188.55l-18.589,-21.701c-66.648,54.061 -115.241,129.555 -135.139,215.905l27.919,6.08c18.555,-80.165 63.799,-150.211 125.809,-200.284Z" style="fill:#ea4524;fill-rule:nonzero;"/><path d="M802.867,620.452l26.117,11.591c11.469,-25.196 20.323,-51.824 26.25,-79.525l-27.947,-5.951c-5.512,25.739 -13.749,50.477 -24.42,73.885Z" style="fill:#ea4524;fill-rule:nonzero;"/><path d="M826.021,388.834l27.919,-6.08c-19.899,-86.35 -68.493,-161.844 -135.143,-215.905l-18.584,21.701c62.009,50.073 107.252,120.119 125.808,200.284Z" style="fill:#ea4524;fill-rule:nonzero;"/><path d="M520.499,448.226c-0.019,0.002 -0.11,0.011 -0.231,0.062l0.298,1.069l0.002,0l-0.069,-1.131Z" style="fill:#ea4524;fill-rule:nonzero;"/><path d="M278.567,658.471c-3.348,-3.463 -5.012,-7.455 -4.948,-11.86c0.02,-1.439 0.431,-3.018 1.156,-4.437c1.304,-2.546 4.323,-2.865 6.171,-0.632c0.824,0.992 1.524,2.068 2.204,3.107c0.329,0.503 0.658,1.007 1.001,1.498c0.49,0.711 0.971,1.421 1.454,2.135c1.203,1.769 2.445,3.601 3.768,5.298c1.412,1.805 3.308,2.923 5.636,3.326c2.26,0.39 4.082,-0.172 5.508,-1.822c1.123,-1.299 2.308,-2.715 3.37,-4.227c1.803,-2.575 4.18,-4.199 7.062,-4.82l2.894,-0.629c4.415,-0.967 8.98,-1.965 13.542,-2.595c12.531,-1.738 24.753,-2.631 36.324,-2.648l0.295,0c6.541,0 12.727,0.401 18.385,1.193c7.208,1.004 14.487,2.289 21.524,3.532c3.061,0.541 6.12,1.082 9.185,1.603c5.072,0.861 9.577,2.919 14.777,5.739l1.386,0.736c1.036,0.546 2.075,1.092 3.068,1.704c3.065,1.884 5.74,3.137 8.829,3.137l0.002,0c1.078,0 1.987,0.366 2.752,0.721c1.1,0.518 1.465,1.25 1.578,1.775c0.115,0.533 0.081,1.366 -0.728,2.322c-0.481,0.561 -1.078,1.087 -1.732,1.526c-2.935,1.977 -6.371,3.414 -10.5,4.39c-0.626,0.149 -1.27,0.223 -1.919,0.223c-1.32,0 -2.686,-0.307 -4.175,-0.94c-1.782,-0.757 -3.55,-1.545 -5.323,-2.332c-1.211,-0.539 -2.423,-1.08 -3.637,-1.608c-2.722,-1.182 -5.362,-1.76 -8.071,-1.766c-2.652,-0.007 -5.308,-0.025 -7.962,-0.043c-5.71,-0.04 -11.424,-0.08 -17.133,-0.004c-4.962,0.06 -9.958,1.072 -14.791,2.053l-0.51,0.102c-7.832,1.588 -15.631,1.769 -23.593,1.826l-3.157,0.008l-6.445,-0.042l-2.657,0.097c-2.803,0.097 -5.606,0.2 -8.409,0.355c-5.869,0.33 -11.856,-0.497 -18.818,-2.535c-1.361,-0.401 -2.615,-0.603 -3.723,-0.603l-0.234,0.002c-0.792,0.021 -1.738,0.365 -2.15,0.781c-1.949,1.965 -4.2,2.577 -7.165,1.893c-5.879,-1.348 -10.491,-3.815 -14.091,-7.539ZM480.402,618.11c-2.702,-2.645 -2.813,-5.659 -0.302,-8.273c1.638,-1.706 3.681,-2.683 5.905,-2.83c2.68,0.012 4.582,1.279 5.73,3.769c0.198,0.43 0.439,0.582 1.137,0.937c2.021,1.033 3.978,2.067 5.764,3.401c4.127,3.082 7.618,6.73 10.382,10.843c0.588,0.877 1.025,1.827 1.449,2.743c0.278,0.6 0.552,1.202 0.874,1.775c0.687,1.234 1.428,2.439 2.169,3.645l0.947,1.558c0.241,0.399 0.497,0.791 0.751,1.184c0.623,0.956 1.266,1.942 1.715,3.05c0.418,1.034 0.409,1.89 -0.028,2.537c-0.509,0.753 -1.399,1.06 -2.834,0.882c-1.315,-0.154 -2.673,-0.318 -4.008,-0.353c-0.002,0 -0.005,0 -0.007,0c-1.558,0 -2.526,0.659 -3.006,1.964c-0.483,1.317 -0.885,2.665 -1.289,4.012c-0.251,0.839 -0.501,1.677 -0.772,2.511l-0.22,0.685c-0.489,1.516 -0.994,3.087 -1.632,4.596c-0.756,1.8 -1.856,2.715 -3.266,2.715l-0.166,-0.006c-2.183,-0.119 -2.752,-2.367 -2.937,-3.105l-0.496,-1.951c-0.731,-2.854 -1.487,-5.803 -1.948,-8.777c-1.385,-8.912 -3.998,-15.661 -8.22,-21.245c-1.833,-2.421 -4.005,-4.623 -5.692,-6.267ZM414.971,772.616c27.241,-48.897 84.142,-130.653 177.426,-173.635c-9.003,-6.347 -16.559,-12.637 -24.527,-19.274c-1.741,-1.452 -3.505,-2.918 -5.302,-4.403c-17.64,-14.572 -16.632,-28.802 -16.147,-35.64c0.066,-0.932 0.125,-1.744 0.125,-2.418c0,-3.677 -1.629,-6.608 -2.59,-8.014l-0.372,0.328c-2.364,2.071 -4.97,3.692 -7.746,4.821c-0.615,0.253 -1.281,0.58 -2.089,1.035c-0.626,0.387 -2.702,2.055 -1.574,6.369c0.887,3.38 1.422,5.296 2.1,5.296c0.522,0 1.443,-0.429 1.746,-0.571c1.485,-0.616 2.682,-0.91 3.701,-0.91c1.622,0 2.881,0.736 3.642,2.125c0.456,0.82 0.119,1.596 -1.003,2.293c-0.092,0.057 -0.187,0.108 -0.256,0.164c-0.916,0.793 -1.821,1.602 -2.728,2.408c-2.139,1.906 -4.348,3.877 -6.699,5.627c-3.506,2.606 -7.147,5.145 -10.664,7.599c-2.329,1.626 -4.657,3.249 -6.963,4.902c-1.003,0.719 -1.927,1.535 -2.906,2.4c-0.485,0.43 -0.973,0.858 -1.466,1.275c0.355,0.464 0.632,0.843 0.909,1.222c0.332,0.451 0.665,0.907 1.019,1.339c3.079,3.733 7.218,6.246 11.231,8.404c2.324,1.248 4.183,2.513 5.689,3.867c2.595,2.323 3.846,5.508 3.519,8.958c-0.565,5.923 -4.645,9.899 -10.152,9.899c-1.375,0 -2.799,-0.243 -4.235,-0.724c-4.561,-1.526 -8.369,-4.461 -11.981,-9.239c-3.062,-4.049 -6.166,-8.154 -9.379,-12.043c-1.047,-1.268 -2.489,-2.333 -3.885,-3.366l-0.366,-0.268c-0.483,-0.36 -1.373,-0.754 -2.189,-0.384c-2.887,1.3 -5.848,1.572 -8.624,1.673c-1.185,0.044 -2.457,0.294 -3.678,0.726c-0.356,0.125 -1.496,0.646 -1.167,1.95c0.363,1.444 0.947,2.824 1.686,3.993c0.921,1.445 1.952,2.874 2.95,4.257c0.72,0.998 1.444,2 2.136,3.02c0.651,0.96 1.209,2.044 1.61,3.131c0.333,0.903 0.283,1.756 -0.136,2.408c-0.411,0.638 -1.136,1.024 -2.044,1.091c-1.344,0.097 -2.688,-0.062 -3.698,-0.49c-2.555,-1.079 -5.001,-2.358 -6.846,-3.346c-4.188,-2.253 -9.311,-4.542 -15.016,-4.36l-0.474,0.009c-2.714,0 -5.338,-0.767 -7.592,-2.214c-2.599,-1.67 -3.851,-3.892 -3.717,-6.597c0.026,-0.56 0,-0.814 -0.022,-0.927c-0.044,0.009 -0.189,-0.004 -0.437,-0.004c-0.138,0 -0.287,0.004 -0.453,0.013c-0.254,0.014 -0.524,0.036 -0.775,0.1c-4.746,1.178 -9.035,3.483 -12.751,6.85c-0.759,0.691 -1.427,1.819 -2.041,3.448c-0.464,1.239 0.41,2.163 0.971,2.605c0.844,0.669 1.773,0.707 2.687,0.132c0.769,-0.486 1.482,-1.078 2.236,-1.707c0.371,-0.31 0.745,-0.621 1.124,-0.918c0.279,-0.22 0.552,-0.451 0.825,-0.683c0.712,-0.603 1.448,-1.228 2.323,-1.691c3.008,-1.597 6.379,-0.431 7.85,2.662c0.209,0.434 0.373,0.889 0.542,1.345c0.169,0.471 0.338,0.944 0.575,1.383c1.024,1.884 2.145,3.898 3.408,5.858c0.301,0.467 0.988,1.015 1.972,0.784c3.348,-0.793 6.576,-0.065 10.367,2.408c5.606,3.65 10.206,7.425 14.063,11.539c2.764,2.948 4.685,5.912 5.878,9.05c1.437,3.78 1.23,7.629 1.031,11.351l-0.078,1.529c-0.034,0.825 -0.146,3.338 -3.117,3.338c-0.373,0 -0.802,-0.038 -1.291,-0.114c-6.412,-0.985 -11.324,-2.87 -15.463,-5.931c-3.221,-2.38 -6.634,-4.637 -9.935,-6.819l-1.972,-1.303c-4.017,-2.661 -8.171,-5.408 -11.707,-8.923c-1.382,-1.372 -3.083,-3.284 -3.976,-5.899c-0.485,-1.418 -1.053,-2.234 -1.555,-2.234c-0.218,0 -0.862,0.133 -2.051,1.359c-1.414,1.458 -2.657,3.196 -3.859,4.872l-0.369,0.516c-2.508,3.492 -5.313,3.754 -8.237,0.752c-1.222,-1.255 -2.241,-2.687 -3.225,-4.071l-0.57,-0.804c-0.589,-0.815 -1.144,-1.657 -1.698,-2.5c-0.888,-1.353 -1.73,-2.629 -2.708,-3.805c-3.008,-3.634 -5.646,-4.012 -9.687,-1.514c-4.373,2.707 -9.262,4.897 -14.529,6.513c-9.068,2.78 -17.09,3.747 -24.808,3.014c-7.677,-0.727 -15.745,-1.947 -24.669,-3.729c-2.157,-0.435 -3.791,-1.374 -4.859,-2.798c-0.743,-0.989 -1.763,-2.417 -2.553,-4.037c-28.101,9.974 -63.59,30.353 -65.982,37.97c-1.47,4.688 -1.254,6.996 -0.95,8.012l0.033,0.046c0.228,0.321 0.455,0.645 0.657,0.976l0.721,0.537l-0.231,0.345c0.854,1.639 1.449,3.38 1.777,5.185c1.159,6.373 3.891,11.206 8.36,14.784c0.996,0.795 1.92,1.952 2.829,3.53c7.25,8.441 9.122,29.099 9.765,38.855c36.509,26.711 79.103,45.57 125.286,54.057Z" style="fill:#ea4524;fill-rule:nonzero;"/><path d="M626.683,619.035c-74.472,33.479 -124.051,110.125 -147.908,147c-3.067,4.739 -5.587,8.636 -7.645,11.637c95.96,-0.162 181.722,-44.571 237.968,-113.866c-15.429,-13.61 -46.258,-27.919 -76.18,-41.803c-2.156,-1 -4.23,-1.988 -6.235,-2.968Z" style="fill:#ea4524;fill-rule:nonzero;"/><path d="M580.82,419.339c-0.471,2.093 -0.944,4.188 -1.428,6.279c-0.124,0.518 -0.334,1.058 -0.635,1.655c-0.195,0.388 -0.795,1.592 -1.997,1.592c-1.043,0 -1.71,-0.951 -1.932,-1.263c-0.419,-0.594 -0.825,-1.272 -1.235,-2.073c-2.217,-4.359 -5.852,-7.65 -11.107,-10.059c-3.044,-1.393 -4.013,-3.219 -3.346,-6.301c0.6,-2.778 1.423,-6.582 5.721,-7.488c1.801,-0.379 3.65,-0.388 5.178,-0.009c6.869,1.696 11.512,7.996 11.292,15.321l-0.511,2.346ZM565.952,427.746c-0.165,4.437 -1.94,6.69 -5.284,6.69c-0.95,0 -2.021,-0.182 -3.266,-0.556c-0.969,-0.286 -1.923,-0.646 -2.874,-1.006l-0.618,-0.234c-4.411,-1.651 -7.033,-4.969 -7.794,-9.864c-0.115,-0.757 -0.099,-1.54 0.046,-2.267c0.803,-3.978 5.113,-7.744 9.225,-8.057c2.26,-0.177 4.024,0.736 5.07,2.606c0.249,0.448 0.455,0.916 0.66,1.384c0.194,0.442 0.385,0.886 0.628,1.299c0.686,1.161 1.465,2.479 2.364,3.593c1.337,1.657 1.941,3.755 1.843,6.412ZM231.557,663.113c0.899,-0.838 1.951,-1.8 3.21,-2.943c2.505,-2.277 5.937,-5.396 6.33,-6.104l1.085,-1.993c1.536,-2.826 3.124,-5.744 4.801,-8.56c0.735,-1.226 1.828,-2.365 3.081,-3.209c16.153,-10.874 35.483,-23.483 56.374,-34.542c5.771,-3.054 11.968,-6.191 18.739,-8.081c2.009,-0.559 8.604,-3.463 10.07,-4.645c6.783,-5.47 13.593,-8.947 20.82,-10.632c7.234,-1.69 14.534,-3.683 21.594,-5.61l5.17,-1.41c1.998,-0.541 4.007,-1.268 5.946,-1.972l1.337,-0.48c0.708,-0.258 1.473,-0.625 2.405,-1.164c2.699,-1.566 3.252,-3.115 2.195,-6.142c-0.601,-1.714 -1.168,-3.331 -1.403,-5.028c-0.421,-3.028 0.452,-5.999 2.524,-8.596c0.656,-0.823 0.521,-1.345 0.089,-1.924l-0.372,-0.503c-0.787,-1.075 -1.53,-2.088 -2.435,-2.863c-3.772,-3.238 -5.944,-7.639 -6.643,-13.458c-0.202,-1.653 -0.386,-3.611 -0.224,-5.581c0.099,-1.221 0.621,-2.601 1.435,-3.775c0.797,-1.155 1.007,-2.239 0.651,-3.429c-0.354,-1.201 -0.763,-2.389 -1.167,-3.574c-0.465,-1.344 -0.926,-2.691 -1.315,-4.056c-0.588,-2.071 -1.051,-4.25 -1.38,-6.484c-0.143,-1.004 0.179,-2.247 0.82,-3.172c1.678,-2.443 2.664,-5.426 3.105,-9.38c0.297,-2.69 0.406,-5.552 0.337,-8.745c-0.072,-3.355 -1.659,-6.097 -4.59,-7.929c-2.959,-1.844 -4.923,-4.31 -6.184,-7.752c-1.993,-5.436 -4.767,-9.849 -8.48,-13.489c-2.458,-2.422 -5.268,-4.143 -8.585,-5.26l-0.608,-0.207c-2.857,-0.964 -5.813,-1.964 -8.654,-3.148c-1.716,-0.719 -3.269,-1.853 -4.587,-2.86c-1.55,-1.181 -2.568,-2.909 -3.027,-5.138c-0.13,-0.637 -0.286,-1.268 -0.448,-1.894c-1.205,-4.646 -4.073,-7.436 -8.762,-8.534c-2.985,-0.699 -4.25,-2.143 -4.372,-4.987c-0.108,-2.745 0.1,-5.513 0.305,-8.191l0.031,-0.437c0.172,-2.26 0.492,-4.525 0.8,-6.716l0.047,-0.333c0.311,-2.228 -0.415,-4.12 -2.156,-5.625c-2.696,-2.334 -5.368,-4.368 -7.943,-6.047c-3.509,-2.295 -7.187,-4.463 -10.936,-6.443c-4.95,-2.617 -8.071,-6.796 -9.28,-12.424c-0.985,-4.606 -1.867,-9.307 -2.714,-13.853l-0.572,-3.038c-1.152,-6.116 -2.464,-10.72 -4.253,-14.93c-1.881,-4.414 -5.001,-6.691 -9.542,-6.959l-0.335,-0.03c-1.839,-0.234 -2.988,-0.85 -3.513,-1.883c-0.523,-1.022 -0.35,-2.292 0.525,-3.881c0.907,-1.644 1.938,-3.336 3.243,-5.327c1.123,-1.714 1.005,-3.213 -0.383,-4.859c-0.52,-0.616 -1.059,-1.216 -1.596,-1.815c-0.637,-0.713 -1.275,-1.427 -1.886,-2.163c-2.103,-2.555 -2.219,-4.045 -0.545,-6.935l0.711,-1.217c0.687,-1.168 1.372,-2.338 2.003,-3.538c0.698,-1.331 0.898,-2.597 0.628,-3.981c-0.224,-1.131 0.41,-2.505 1.121,-3.224c1.488,-1.499 3.006,-2.805 4.511,-3.884c6.086,-4.367 12.211,-8.685 18.335,-13.004l1.951,-1.376c3.199,-2.256 7.108,-4.651 11.828,-5.296c0.48,-0.077 0.741,-0.114 0.994,-0.114l0.271,0.013c4.601,0.436 8.317,-2.114 11.224,-4.628c5.198,-4.49 9.539,-9.982 12.911,-16.325c1.918,-3.607 4.549,-6.082 7.822,-7.36c3.181,-1.239 6.649,-2.298 10.313,-3.149c4.931,-1.145 9.982,-2.073 14.866,-2.969l0.68,-0.124c2.455,-0.45 4.824,-0.21 6.94,0.7c1.128,0.487 2.688,1.377 3.208,3.492c1.844,7.514 6.557,11.597 14.008,12.138c4.368,0.313 8.708,1.472 13.272,3.547l2.694,1.228c1.646,0.753 3.29,1.506 4.947,2.234c4.076,1.797 8.093,2.513 12.154,2.111c5.54,-0.553 9.831,1.65 12.348,6.296c2.403,4.435 6.212,7.757 11.988,10.451c4.772,2.228 9.474,4.642 13.846,6.918c4.554,2.369 7.924,6.146 10.013,11.224l0.797,1.93c0.794,1.918 1.592,3.836 2.32,5.776c0.85,2.25 2.472,3.352 4.959,3.367l0.002,0c6.522,0 12.186,-2.24 17.011,-6.659c1.719,-1.571 1.883,-2.663 0.703,-4.67c-1.268,-2.156 -2.672,-4.041 -4.171,-5.607c-6.172,-6.43 -13.403,-11.958 -22.106,-16.901c-9.132,-5.185 -18.232,-10.433 -27.322,-15.7c-1.553,-0.902 -3.128,-1.979 -4.689,-3.199c-2.139,-1.681 -2.848,-3.287 -2.318,-5.562c-0.297,0.525 -0.608,1.041 -0.949,1.538c-1.135,1.66 -2.945,2.339 -4.782,1.778c-2.17,-0.668 -4.736,-1.491 -7.299,-2.538c-2.578,-1.051 -5.56,-2.3 -8.319,-3.829c-1.729,-0.961 -3.365,-2.32 -4.606,-3.829c-1.452,-1.765 -3.035,-2.581 -5.293,-2.728c-5.813,-0.37 -12.405,-0.792 -18.601,-2.737c-2.337,-0.732 -5.029,-1.757 -7.27,-3.814c-0.699,-0.639 -1.282,-1.318 -1.736,-2.018c-2.071,-3.213 -1.508,-6.197 1.582,-8.404c3.096,-2.211 6.559,-3.105 10.438,-3.965c2.526,-0.561 5.066,-1.049 7.608,-1.536c1.328,-0.254 2.654,-0.51 3.978,-0.774c0.64,-0.129 1.233,-0.293 1.762,-0.487c1.415,-0.519 1.655,-0.875 1.602,-2.384c-0.109,-3.091 0.547,-4.897 4.321,-5.589c4.007,-0.739 7.887,-1.266 11.537,-1.564c9.486,-0.779 19.597,-1.054 29.738,-0.837l0.323,0.004c3.073,0 5.99,-0.891 9.082,-1.835l0.652,-0.2c3.88,-1.176 7.443,-2.081 10.893,-2.767c3.659,-0.734 7.148,0.373 10.198,3.242c1.897,1.787 3.445,3.93 4.878,6.791c0.643,-1.507 1.856,-2.572 3.579,-3.127c2.87,-0.917 5.359,-0.651 7.387,0.78c1.98,1.392 4.009,2.817 5.752,4.546c10.395,10.297 19.28,22.346 26.406,35.812c1.359,2.571 2.26,5.235 2.752,8.144c0.261,1.56 0.943,3.176 1.867,4.432c2.343,3.186 4.972,6.456 8.274,10.292c2.178,2.537 4.498,5.046 6.74,7.473l2.433,2.641c3.519,3.836 5.087,8.409 4.802,13.978c-0.192,3.815 -0.311,7.826 -0.367,12.262c-0.102,8.113 1.847,14.912 5.961,20.788c2.747,3.921 3.018,8.565 0.809,13.8c-1.638,3.858 -4.165,7.403 -7.519,10.541c-2.141,2.002 -4.437,3.88 -6.657,5.694c-0.995,0.812 -1.986,1.622 -2.968,2.446c-1.268,1.07 -2.886,1.233 -4.321,0.439c-1.105,-0.611 -2.48,-1.371 -3.549,-2.416c-1.737,-1.69 -3.444,-3.352 -4.748,-5.315c-3.136,-4.724 -7.554,-7.415 -13.506,-8.228c-1.62,-0.223 -3.231,-0.554 -4.787,-0.873l-1.812,-0.365c-2.593,-0.503 -4.551,-1.72 -5.666,-3.518c-3.52,-5.686 -9.256,-7.521 -14.407,-8.565l-0.743,-0.152c-5.055,-1.026 -10.284,-2.087 -15.439,-2.492c-6.879,-0.539 -13.717,1.626 -19.716,3.52c-9.146,2.893 -17.875,7.076 -26.687,12.791c-1.584,1.025 -2.642,2.264 -3.237,3.788c-1.204,3.085 -2.888,5.312 -5.293,7.01c-1.916,1.352 -3.147,3.373 -3.558,5.844c-0.158,0.967 0.053,1.717 0.684,2.432c1.893,2.141 1.839,4.196 -0.168,6.281c-2.31,2.392 -5.287,3.123 -7.324,3.465c-3.176,0.531 -5.381,1.425 -7.152,2.902c-0.746,0.62 -1.589,1.347 -2.154,2.17c-1.168,1.705 -2.728,2.794 -4.767,3.325c-0.091,0.024 -0.173,0.05 -0.253,0.079l-0.526,0.174c-1.126,0.362 -1.364,0.524 -1.404,0.968c-0.066,0.688 0.458,1.097 1.584,1.807c1.33,0.844 2.461,0.853 3.633,-0.011c0.276,-0.204 0.559,-0.396 0.842,-0.587c0.392,-0.264 0.785,-0.527 1.146,-0.828c3.554,-2.967 7.905,-4.699 13.686,-5.45c5.804,-0.752 11.432,-0.69 16.838,0.185c2.929,0.476 5.753,-0.235 8.287,-2.093c1.417,-1.036 2.748,-2.26 3.99,-3.424c1.359,-1.27 3.009,-2.567 4.957,-2.567c1.501,0 2.984,0.718 4.805,2.325c2.697,2.373 5.43,2.915 9.01,1.764c5.1,-1.639 10.006,-1.088 15.349,1.755c4.267,2.262 8.762,4.31 13.111,6.292c1.465,0.668 2.931,1.336 4.389,2.013c1.018,0.471 2.169,0.796 3.26,1.089c5.131,1.379 9.193,4.488 12.421,9.504c0.505,0.783 0.834,1.626 1.154,2.439c0.887,2.269 0.607,4.702 -0.76,6.706c-1.746,2.56 -4.974,3.912 -7.764,3.217c-2.313,-0.574 -4.544,-1.478 -6.698,-2.351l-1.096,-0.442c-0.945,-0.378 -1.862,-0.825 -2.781,-1.274c-0.887,-0.433 -1.772,-0.868 -2.687,-1.23c-3.137,-1.242 -4.537,-0.931 -6.8,1.777l-0.4,0.476c-0.78,0.939 -1.59,1.911 -2.487,2.804c-2.091,2.082 -4.851,2.788 -7.719,1.975c-1.21,-0.347 -2.363,-0.823 -3.484,-1.285c-0.765,-0.316 -1.531,-0.632 -2.312,-0.904l-0.349,-0.121c-1.708,-0.594 -3.474,-1.209 -5.222,-1.573c-3.866,-0.806 -5.768,-2.692 -6.36,-6.309c-0.48,-2.923 -1.831,-5.47 -4.258,-8.016l-0.824,-0.871c-0.892,-0.944 -1.783,-1.888 -2.723,-2.783c-0.643,-0.612 -1.003,-0.659 -1.096,-0.659c-0.251,0 -0.574,0.453 -0.82,1.155c-0.184,0.525 -0.33,1.114 -0.434,1.748l-0.449,2.714c-0.425,2.539 -0.866,5.164 -1.12,7.742c-0.15,1.496 -0.278,3.691 0.309,5.467c1.971,5.968 1.541,12.026 -1.318,18.522c-0.949,2.151 -1.234,3.823 -0.925,5.421c0.528,2.747 2.822,4.57 6.132,4.873c4.087,0.373 8.96,-0.03 13.46,-0.466l1.617,-0.156c1.501,-0.145 3.012,-0.194 4.547,-0.242c0.289,-0.009 0.581,-0.018 0.875,-0.028c-0.01,-0.097 -0.024,-0.193 -0.034,-0.291c-0.253,-2.578 0.961,-4.284 3.242,-4.566c0.914,-0.116 2.08,-0.181 3.193,-0.181c3.678,0 4.437,0.657 4.723,0.905l0.888,0.785c1.272,1.135 2.372,2.119 3.78,2.68c5.531,2.209 10.452,4.578 15.055,7.247c2.238,1.304 4.011,1.742 5.933,1.383l0.008,0.031c0.876,-0.43 1.77,-0.657 2.628,-0.657c2.388,0 4.048,1.735 5.091,3.041l0.304,0.331c2.442,2.678 3.78,2.753 6.192,0.301c1.778,-1.809 3.34,-3.952 4.848,-6.025l0.883,-1.205c0.775,-1.06 1.496,-2.215 2.194,-3.331c0.415,-0.666 0.832,-1.333 1.261,-1.987c0.228,-0.348 0.505,-0.62 0.748,-0.861l0.25,-0.254c0.357,-0.35 0.795,-0.702 1.364,-0.702l0.541,0l0.463,0.479c0.491,0.601 0.365,1.42 0.115,2.599c-0.032,0.156 -0.061,0.288 -0.071,0.37c-0.578,4.637 -2.085,8.486 -4.479,11.441c-2.98,3.671 -4.532,7.869 -4.89,13.212c-0.27,3.994 -2.553,6.02 -6.69,5.581c-1.434,-0.148 -2.842,-0.457 -4.207,-0.758c-1.069,-0.235 -2.138,-0.471 -3.214,-0.625c-5.847,-0.847 -10.726,-3.494 -16.251,-7.207c-1.831,-1.233 -3.714,-2.397 -5.595,-3.561c-2.387,-1.476 -4.855,-3.007 -7.195,-4.665c-2.053,-1.455 -3.93,-3.158 -5.743,-4.808c-0.744,-0.673 -1.483,-1.347 -2.233,-2.001c-0.321,0.395 -1.099,1.738 -1.681,2.747c-1.314,2.273 -2.802,4.847 -4.797,6.029c-2.396,1.408 -4.962,2.042 -7.629,1.855c-0.742,-0.048 -1.63,-0.01 -1.982,0.568c-0.289,0.479 -0.182,1.379 0.267,2.244c0.732,1.408 1.818,2.369 3.229,2.852c2.499,0.855 4.659,0.851 6.801,-0.023c1.89,-0.762 3.994,-1.477 6.627,-2.246c2.531,-0.729 4.934,0.049 6.318,2.052c2.579,3.712 6.382,5.325 9.762,6.414c1.795,0.581 3.518,1.528 4.851,2.665c1.615,1.373 2.456,3.001 2.436,4.708c-0.019,1.701 -0.894,3.304 -2.534,4.636c-1.138,0.923 -2.942,2.149 -5.089,2.761c-3.391,0.961 -7.117,1.065 -10.974,0.308c-1.473,-0.29 -2.814,-0.995 -3.582,-1.878c-1.282,-1.478 -2.977,-2.197 -5.34,-2.266l-3.181,-0.095c-6.301,-0.198 -12.814,-0.397 -19.19,-0.125c-4.654,0.2 -9.357,1.998 -13.981,5.342c-1.492,1.077 -2.495,2.373 -3.065,3.964c-0.664,1.84 -1.382,3.797 -2.24,5.685c-0.556,1.219 -1.261,2.624 -2.275,3.802c-0.916,1.067 -2.205,1.68 -3.533,1.68c-1.622,0 -3.094,-0.888 -3.941,-2.368c-0.745,-1.311 -1.014,-2.879 -1.165,-4.098c-0.027,-0.242 -0.105,-0.878 -0.197,-1.016l0,0.005c-0.014,0 -0.162,-0.075 -0.676,-0.135c-1.222,-0.141 -2.645,-0.175 -4.092,-0.122c-4.677,0.174 -8.986,-1.255 -12.865,-2.803c-0.658,-0.262 -1.328,-0.64 -1.987,-1.112c-2.687,-1.934 -3.311,-5.114 -1.513,-7.731c0.994,-1.445 2.262,-2.857 3.768,-4.204c1.36,-1.215 2.78,-2.364 4.201,-3.516c1.059,-0.856 2.119,-1.717 3.155,-2.603c4.686,-4.009 7.82,-8.932 9.318,-14.64c0.197,-0.762 0.173,-1.21 0.122,-1.452c-0.794,-3.682 -0.034,-7.257 0.745,-10.318c1.135,-4.498 2.738,-7.728 5.199,-10.472c2.497,-2.79 3.615,-6.544 4.698,-10.175l0.183,-0.602c0.147,-0.502 0.263,-1.017 0.378,-1.531c0.073,-0.326 0.147,-0.652 0.227,-0.977c0.16,-0.63 0.015,-0.892 -0.617,-1.121c-0.599,-0.214 -1.157,-0.349 -1.66,-0.397l-0.735,-0.071c-1.704,-0.167 -3.47,-0.34 -5.181,-0.355c-1.066,0 -2.175,0.28 -3.154,0.527c-0.724,0.184 -1.337,0.45 -1.768,0.77c-4.954,3.694 -10.807,4.483 -15.974,5.178c-2.626,0.351 -5.372,0.938 -8.163,1.749c-3.598,1.042 -5.942,3.221 -6.966,6.473c-0.594,1.891 -0.116,2.839 1.774,3.497c0.841,0.295 1.807,0.516 2.951,0.678c3.767,0.53 7.442,2.104 11.233,4.812c2.519,1.8 5.31,3.483 8.64,3.617c1.997,0.077 3.708,1.557 4.452,2.902c0.587,1.056 0.65,2.089 0.18,2.905c-0.96,1.674 -1.895,3.361 -2.831,5.051l-1.57,2.823c-0.212,0.379 -0.419,0.765 -0.623,1.153c-0.55,1.035 -1.119,2.108 -1.847,3.086c-1.272,1.71 -2.423,2.934 -3.623,3.854c-5.009,3.834 -9.061,8.157 -12.381,13.224c-2.369,3.611 -2.758,7.653 -1.184,12.357c0.448,1.34 -0.191,2.971 -0.808,4.106c-1.07,1.975 -3.137,4.335 -5.145,4.857c-0.753,0.197 -1.498,0.462 -2.236,0.745c-0.942,0.403 -1.572,1.104 -1.884,2.128c-1.382,4.559 3.736,13.872 5.823,17.076c2.045,2.181 3.318,5.085 3.942,9.052c0.301,1.939 0.661,4.007 1.255,5.975c0.806,2.695 2.126,3.65 5.039,3.65c0.821,-0.009 1.528,-0.027 2.234,-0.044c0.893,-0.023 1.785,-0.044 2.678,-0.044c2.184,0 4.771,0.115 7.406,0.979c1.778,0.576 3.672,1.173 5.536,1.543c3.91,0.777 6.99,-0.441 9.404,-3.734c1.869,-2.548 3.084,-5.578 3.937,-9.827l0.057,-0.277c0.167,-0.84 0.34,-1.683 0.578,-2.502c0.871,-3.031 2.588,-4.328 5.743,-4.333c0.738,0 1.478,0.034 2.215,0.068c1.268,0.06 2.541,0.122 3.794,-0.022c2.337,-0.264 4.616,-0.866 6.536,-1.418c3.684,-1.059 6.684,-0.08 8.982,2.883c2.967,3.819 4.964,8.169 6.912,12.66l0.193,0.452c0.376,0.876 0.728,1.702 1.191,2.437c1.198,1.894 3.208,2.784 5.239,2.33c1.426,-0.321 2.266,-1.031 2.568,-2.162c0.95,-3.544 1.825,-7.109 2.701,-10.668l0.539,-2.184c0.042,-0.173 0.078,-0.354 0.112,-0.538c0.19,-0.969 0.505,-2.594 2.278,-3.054c0.264,-0.068 0.527,-0.102 0.785,-0.102c1.713,0 2.666,1.446 3.232,2.308c0.672,1.013 1.304,2.184 1.988,3.679c0.487,1.071 1.241,1.817 2.514,2.493c1.428,0.756 2.758,1.679 4.046,2.573l1.298,0.894c0.311,0.208 0.502,0.469 0.683,0.722l1.361,1.713l-2.726,0.676c-0.726,0.184 -1.4,0.356 -2.081,0.49c-1.366,0.274 -2.251,1.006 -2.776,2.293c-0.951,2.344 -2.466,4.504 -4.769,6.793c-1.492,1.484 -2.701,2.896 -3.703,4.322c-0.581,0.826 -0.588,1.253 -0.537,1.346c0.045,0.099 0.397,0.353 1.431,0.397c4.782,0.189 9.278,1.726 13.367,4.571c1.058,0.735 2.157,0.912 3.419,0.685c2.446,-0.44 4.665,-1.484 6.778,-3.196c1.021,-0.82 2.108,-1.558 3.16,-2.267c0.534,-0.36 1.069,-0.722 1.597,-1.097c1.324,-0.938 2.637,-1.887 3.944,-2.844c1.245,-0.918 1.759,-2.151 1.717,-4.125c-0.085,-3.871 -0.076,-8.363 1.116,-12.666c0.214,-0.78 0.498,-1.547 0.804,-2.301l0.002,-0.017c0.912,-2.801 6.493,-10.878 9.346,-10.878c0.381,0 0.738,0.115 1.031,0.337c0.34,0.254 0.637,0.629 0.982,1.064c0.608,0.767 1.367,1.725 2.168,1.725c0.795,0 3.058,-0.983 6.82,-10.077c6.905,-16.693 5.153,-32.708 5.073,-33.378c-0.369,-1.096 -0.942,-2.435 -1.703,-3.883c-1.742,-3.32 -1.756,-6.823 -0.036,-10.42c0.725,-1.529 1.798,-2.54 3.276,-3.09c0.146,-0.054 0.373,-0.265 0.59,-0.468c0.216,-0.202 0.437,-0.402 0.671,-0.57c0.131,-0.094 0.265,-0.209 0.398,-0.319c0.507,-0.424 1.137,-0.95 1.952,-1.02c1.796,-0.155 3.086,-0.998 4.06,-2.648c0.89,-1.516 1.47,-1.516 1.75,-1.516l0.597,0l0.357,0.5c0.371,0.541 0.148,1.123 0.041,1.399l-0.124,0.337c-0.113,0.322 -0.23,0.641 -0.385,0.943c-1.508,2.958 -3.217,6.315 -6.22,8.819c-0.827,0.687 -1.117,1.705 -0.978,3.4l0.435,5.121c0.375,4.354 0.76,8.86 1.039,13.299c0.186,2.994 0.395,6.381 0.183,9.714l0.033,0.185l-0.055,0.145c-0.145,2.005 -0.427,3.788 -0.858,5.446c-1.628,6.279 -3.334,12.386 -6.232,18.098c-0.002,0.004 -0.004,0.009 -0.006,0.014c2.838,3.712 4.282,8.022 5.677,12.192l1.899,5.585c1.187,3.483 2.413,7.083 3.722,10.582c1.463,3.907 3.968,7.3 7.658,10.372c2.643,2.204 5.261,4.442 7.865,6.694l0.219,0.191c3.758,3.244 7.548,6.579 11.339,9.915c2.635,2.315 5.267,4.631 7.912,6.936c0.671,0.59 1.358,1.163 2.042,1.738c1.326,1.112 2.7,2.265 3.971,3.506c2.914,2.848 6.569,4.066 10.374,5.16c6.66,1.905 11.933,2.646 17.196,2.34c0.912,-0.051 1.818,-0.19 2.723,-0.325c0.647,-0.099 1.298,-0.196 1.949,-0.265c0.868,-0.102 1.776,-0.172 2.645,-0.059c2.546,0.338 4.028,2.095 3.771,4.477c-0.174,1.6 -0.599,3.152 -1.011,4.651l-0.357,1.327c-0.04,0.149 -0.087,0.295 -0.141,0.44c1.236,0.06 2.679,0.166 4.176,0.277c2.58,0.192 5.283,0.391 7.072,0.36c2.059,-4.385 5.665,-12.599 8.86,-19.884c3.501,-7.976 6.523,-14.866 7.377,-16.453c0.636,-1.388 1.957,-2.838 3.357,-4.372c1.41,-1.548 2.869,-3.15 3.679,-4.773c0.803,-1.614 1.941,-4.017 3.178,-6.613c3.706,-7.812 6.208,-13.01 7.144,-14.043c0.821,-0.904 2.103,-1.405 3.612,-1.405c0.921,0 1.875,0.194 2.689,0.549c8.464,4.367 7.967,7.349 6.269,12.681l-0.278,0.877c-0.776,2.49 -1.826,5.174 -3.114,7.977c-0.329,0.718 -0.334,1.365 -0.014,1.871c0.477,0.736 1.58,0.969 1.945,0.195c0.089,-0.195 0.706,-1.688 1.712,-4.127c29.883,-72.408 32.076,-73.095 33.253,-73.464c3.218,-1.015 7.502,0.199 10.797,2.968c1.699,1.429 1.472,3.593 1.07,4.648c-1.857,4.854 -5.859,15.255 -10.673,27.766c-10.03,26.065 -23.765,61.762 -28.693,74.814c-1.054,2.793 -0.874,5.496 -0.504,9.011c0.565,5.316 -0.823,10.186 -2.253,14.251c-1.595,4.524 -5.719,13.5 -7.238,16.609c1.364,0.762 4.002,2.204 6.572,3.614c2.486,1.359 5.083,2.78 6.936,3.805c3.609,1.999 7.511,4.215 11.42,6.72c37.622,-50.964 59.896,-113.918 59.896,-181.983c0,-169.321 -137.756,-307.076 -307.079,-307.076c-169.322,0 -307.077,137.755 -307.077,307.076c0,72.834 25.503,139.811 68.028,192.512Z" style="fill:#ea4524;fill-rule:nonzero;"/></g></svg>