<?xml version="1.0" encoding="utf-8"?>
<!-- Generator: Adobe Illustrator 24.0.1, SVG Export Plug-In . SVG Version: 6.00 Build 0)  -->
<svg version="1.1" id="Camada_1" xmlns="http://www.w3.org/2000/svg" xmlns:xlink="http://www.w3.org/1999/xlink" x="0px" y="0px"
	 viewBox="0 0 833.42 833.42" style="enable-background:new 0 0 833.42 833.42;" xml:space="preserve">
<style type="text/css">
	.st0{fill:#2C3445;}
	.st1{fill:#FFFFFF;}
	.st2{opacity:0.59;fill:#73A6EF;}
	.st3{font-family:'Futura-Medium';}
	.st4{font-size:28.7671px;}
	.st5{font-family:'OpenSans-Light';}
	.st6{font-size:22.8756px;}
	.st7{font-size:27.1384px;}
	.st8{fill:none;stroke:#35312F;stroke-linecap:round;stroke-linejoin:round;stroke-miterlimit:10;}
	.st9{opacity:0.59;}
	.st10{fill:#92BAEA;}
	.st11{font-size:86.6013px;}
	.st12{font-size:25.3957px;}
	.st13{font-size:13.9165px;}
	.st14{fill:none;stroke:#000000;stroke-miterlimit:10;}
	.st15{fill:#363738;}
	.st16{font-family:'Futura-Bold';}
	.st17{font-size:31.9087px;}
	.st18{fill:#2B2928;}
	.st19{font-size:35.0545px;}
</style>
<rect x="0" class="st0" width="837.17" height="837.17"/>
<path class="st1" d="M667.1,679.1H170.07c-6.6,0-12-5.4-12-12V170.07c0-6.6,5.4-12,12-12H667.1c6.6,0,12,5.4,12,12V667.1
	C679.1,673.7,673.7,679.1,667.1,679.1z"/>
<circle class="st2" cx="229.9" cy="614.57" r="23.99"/>
<g>
	<g>
		<path d="M211.41,608.88c0-1.23,0.46-2.28,1.38-3.14c0.92-0.86,2.03-1.29,3.34-1.29c1.33,0,2.45,0.44,3.37,1.31
			c0.92,0.86,1.38,1.93,1.38,3.2c0,1.28-0.46,2.35-1.38,3.22c-0.92,0.86-2.05,1.29-3.4,1.29c-1.35,0-2.46-0.44-3.34-1.32
			C211.86,611.26,211.41,610.17,211.41,608.88z M213.59,608.92c0,0.82,0.23,1.48,0.68,1.97c0.46,0.49,1.07,0.73,1.86,0.73
			c0.78,0,1.41-0.24,1.87-0.72s0.7-1.13,0.7-1.94c0-0.41-0.06-0.77-0.18-1.1c-0.12-0.32-0.29-0.6-0.52-0.84
			c-0.22-0.23-0.49-0.41-0.81-0.54c-0.31-0.13-0.66-0.19-1.04-0.19c-0.39,0-0.74,0.06-1.05,0.19c-0.32,0.13-0.59,0.3-0.81,0.53
			s-0.4,0.5-0.52,0.83C213.65,608.18,213.59,608.53,213.59,608.92z"/>
		<path d="M241.5,605.45v4.01c-1.96-1.64-3.98-2.45-6.07-2.45c-2.3,0-4.25,0.83-5.82,2.48c-1.59,1.65-2.38,3.66-2.38,6.04
			c0,2.35,0.79,4.34,2.38,5.96c1.59,1.62,3.53,2.43,5.84,2.43c1.19,0,2.2-0.19,3.04-0.58c0.46-0.19,0.95-0.45,1.44-0.78
			c0.5-0.33,1.02-0.73,1.58-1.19v4.08c-1.94,1.09-3.97,1.64-6.1,1.64c-3.21,0-5.94-1.12-8.21-3.36c-2.26-2.26-3.38-4.98-3.38-8.16
			c0-2.86,0.94-5.4,2.83-7.64c2.32-2.74,5.33-4.11,9.02-4.11C237.68,603.81,239.63,604.35,241.5,605.45z"/>
	</g>
</g>
<g>
	<text transform="matrix(1 0 0 1 266.5457 626.6687)" class="st3 st4">ºF</text>
</g>
<g>
	<text transform="matrix(1 0 0 1 381.8162 562.3186)" class="st5 st6">umidity</text>
</g>
<g>
	<text transform="matrix(1 0 0 1 224.7879 562.3186)" class="st5 st7">scale</text>
</g>
<g>
	<text transform="matrix(1 0 0 1 540.8054 562.3186)" class="st5 st6">wind</text>
</g>
<g>
	<text transform="matrix(1 0 0 1 414.0066 626.2136)" class="st3 st4">6%</text>
</g>
<text transform="matrix(1 0 0 1 563.9099 626.6687)" class="st3 st4">3m/s</text>
<g>
	<path class="st8" d="M391.94,620.44c0,6.44-5.22,11.66-11.66,11.66c-6.44,0-11.66-5.22-11.66-11.66c0-6.44,11.66-21.66,11.66-21.66
		S391.94,614,391.94,620.44z"/>
	<path class="st8" d="M388.62,620.92c-1.07,3.75-3.97,6.72-7.67,7.9"/>
</g>
<g class="st9">
	<path class="st10" d="M518.9,501.49c29.73-66.39,10.87-136.54-44.45-170.25l3.41-6.49c2.06-3.92,0.55-8.78-3.37-10.84
		c-3.92-2.06-8.78-0.55-10.84,3.37l-3.41,6.49c-59.15-26.41-127.62-2.13-165.4,60.04l-4.44,7.3l14.4,7.57l4.12-5.31
		c6.38-8.22,17.7-10.67,26.92-5.83s13.62,15.55,10.47,25.47l-2.03,6.4l12.77,6.71l4.12-5.31c6.38-8.22,17.7-10.67,26.92-5.83
		c9.21,4.84,13.62,15.55,10.47,25.47l-0.63,1.98l-42.65,81.2c-3.54,6.74-11.91,9.34-18.66,5.8c-6.74-3.54-9.35-11.91-5.81-18.65
		l6.1-11.61c2.06-3.92,0.55-8.78-3.37-10.84c-3.92-2.06-8.78-0.55-10.84,3.37l-6.1,11.61c-7.66,14.58-2.02,32.67,12.55,40.32
		c14.58,7.66,32.67,2.03,40.33-12.55l42.65-81.2l1.27-1.64c6.38-8.22,17.7-10.67,26.92-5.83s13.62,15.55,10.47,25.47l-2.03,6.4
		l12.76,6.7l4.12-5.31c6.38-8.22,17.71-10.67,26.92-5.83c9.21,4.84,13.62,15.55,10.48,25.47l-2.03,6.41l14.4,7.56L518.9,501.49z
		 M500.02,455.64c-10.5-5.51-22.56-5.61-32.78-1.03c-2.03-11.01-8.96-20.89-19.46-26.41c-10.5-5.52-22.57-5.61-32.79-1.03
		c-2.03-11.01-8.96-20.89-19.46-26.41c-10.5-5.52-22.57-5.61-32.79-1.03c-2.03-11.01-8.96-20.89-19.46-26.41
		c-5.53-2.91-11.51-4.31-17.41-4.32c36.21-39.38,89.08-51.33,134.18-27.65c45.11,23.69,65.28,74.01,53.4,126.17
		C510.1,462.67,505.56,458.55,500.02,455.64z"/>
	<path class="st10" d="M375.22,270.61c3.92,2.06,8.78,0.55,10.84-3.37l19.15-36.46c2.06-3.92,0.55-8.78-3.37-10.84
		c-3.92-2.06-8.78-0.55-10.84,3.37l-19.15,36.46C369.78,263.7,371.29,268.55,375.22,270.61z"/>
	<path class="st10" d="M416.66,269.12c3.92,2.06,8.78,0.55,10.84-3.37l9.57-18.23c2.06-3.92,0.55-8.78-3.37-10.84
		c-3.92-2.06-8.78-0.55-10.84,3.37l-9.57,18.23C411.23,262.21,412.74,267.06,416.66,269.12z"/>
	<path class="st10" d="M438.97,304.09c3.92,2.06,8.78,0.55,10.84-3.37l19.15-36.46c2.06-3.92,0.55-8.78-3.37-10.84
		c-3.92-2.06-8.78-0.55-10.84,3.37l-19.15,36.46C433.53,297.18,435.04,302.03,438.97,304.09z"/>
	<path class="st10" d="M480.42,302.6c3.92,2.06,8.78,0.55,10.84-3.37l9.57-18.23c2.06-3.92,0.55-8.78-3.37-10.84
		c-3.92-2.06-8.78-0.55-10.84,3.37l-9.57,18.23C474.99,295.69,476.5,300.54,480.42,302.6z"/>
	<path class="st10" d="M502.72,337.58c3.92,2.06,8.78,0.55,10.84-3.37l19.15-36.46c2.06-3.92,0.55-8.78-3.37-10.84
		c-3.92-2.06-8.78-0.55-10.84,3.37l-19.15,36.46C497.29,330.67,498.8,335.52,502.72,337.58z"/>
	<path class="st10" d="M544.17,336.08c3.92,2.06,8.78,0.55,10.84-3.37l9.57-18.23c2.06-3.92,0.55-8.78-3.37-10.84
		c-3.92-2.06-8.78-0.55-10.84,3.37l-9.57,18.23C538.74,329.17,540.25,334.02,544.17,336.08z"/>
	<path class="st10" d="M566.47,371.06c3.92,2.06,8.78,0.55,10.84-3.37l19.15-36.46c2.06-3.92,0.55-8.78-3.37-10.84
		c-3.92-2.06-8.78-0.55-10.84,3.37l-19.15,36.46C561.04,364.15,562.55,369,566.47,371.06z"/>
	<path class="st10" d="M362.48,294.81c1.88,0.99,4.09,1.2,6.17,0.55c1.99-0.62,3.69-2.06,4.67-3.93c0.99-1.88,1.2-4.08,0.59-6.08
		c-1.27-4.07-6.05-6.58-10.06-5.29c-1.99,0.63-3.75,2.03-4.73,3.9c-0.98,1.87-1.14,4.11-0.52,6.11
		C359.18,292.13,360.6,293.82,362.48,294.81z"/>
	<path class="st10" d="M404.04,293.14c1.88,0.99,4.08,1.2,6.16,0.55c2-0.62,3.72-2.11,4.67-3.93c0.96-1.82,1.2-4.08,0.55-6.17
		c-1.3-4.02-6.01-6.49-10-5.25c-2.08,0.65-3.78,2.08-4.76,3.96s-1.2,4.08-0.52,6.11C400.77,290.4,402.17,292.15,404.04,293.14z"/>
	<path class="st10" d="M531.53,360.1c1.88,0.99,4.08,1.2,6.17,0.56c1.99-0.63,3.72-2.11,4.67-3.93c0.96-1.82,1.2-4.08,0.62-6.13
		c-1.36-4.05-6.08-6.53-10.06-5.29c-2.02,0.68-3.78,2.08-4.76,3.96c-0.99,1.88-1.14,4.11-0.52,6.11
		C528.26,357.36,529.66,359.11,531.53,360.1z"/>
	<path class="st10" d="M553.75,395.26c1.88,0.99,4.09,1.2,6.16,0.55c2-0.62,3.69-2.05,4.68-3.93c0.99-1.88,1.2-4.08,0.58-6.08
		c-1.27-4.07-6.04-6.58-10.06-5.28c-2,0.62-3.75,2.03-4.73,3.9c-0.98,1.87-1.15,4.11-0.52,6.11
		C550.44,392.58,551.87,394.28,553.75,395.26z"/>
</g>
<text transform="matrix(1 0 0 1 317.0359 430.093)" class="st3 st11">26ºC</text>
<text transform="matrix(1 0 0 1 364.0428 475.7386)" class="st3 st12">13º</text>
<text transform="matrix(1 0 0 1 421.1238 475.7386)" class="st3 st12">28º</text>
<g>
	<text transform="matrix(1 0 0 1 333.1424 471.6595)" class="st5 st13">MIN</text>
</g>
<g>
	<text transform="matrix(1 0 0 1 466.3328 471.6595)" class="st5 st13">MAX</text>
</g>
<line class="st14" x1="410.78" y1="457.46" x2="410.78" y2="477.28"/>
<g>
	<text transform="matrix(1 0 0 1 266.4788 221.3997)" class="st15 st16 st17">BELO HORIZONTE</text>
</g>
<text transform="matrix(1 0 0 1 388.1785 262.344)" class="st18 st5 st19">rain</text>
<g>
	<g>
		<path class="st15" d="M532.9,615.21c0.6,0,1.09,0.49,1.09,1.09s-0.49,1.09-1.09,1.09h-16.46c-0.6,0-1.09-0.49-1.09-1.09
			s0.49-1.09,1.09-1.09H532.9z"/>
		<path class="st15" d="M507.5,615.21h4.19c0.6,0,1.09,0.49,1.09,1.09s-0.49,1.09-1.09,1.09h-4.19c-0.6,0-1.09-0.49-1.09-1.09
			S506.9,615.21,507.5,615.21z"/>
		<path class="st15" d="M519.15,611.19c0,0.6-0.49,1.09-1.09,1.09h-4.19c-0.6,0-1.09-0.49-1.09-1.09c0-0.6,0.49-1.09,1.09-1.09h4.19
			C518.67,610.1,519.15,610.59,519.15,611.19z"/>
		<path class="st15" d="M523,607.4h-4.19c-0.6,0-1.09-0.49-1.09-1.09c0-0.6,0.49-1.09,1.09-1.09H523c0.6,0,1.09,0.49,1.09,1.09
			C524.08,606.92,523.6,607.4,523,607.4z"/>
		<path class="st15" d="M511.19,620.23h21.97c0,0,0,0,0,0c0.03,0,0.05,0,0.08,0c2.66,0,5.16,1.28,6.72,3.42
			c2.22,3.06,1.54,7.36-1.52,9.58c-2.54,1.85-6.12,1.28-7.97-1.26c-1.55-2.13-1.08-5.13,1.06-6.68c1.8-1.31,4.34-0.91,5.65,0.9
			c1.12,1.54,0.78,3.7-0.76,4.82c-0.57,0.41-1.25,0.61-1.96,0.56c-0.6-0.04-1.05-0.56-1.01-1.16c0.04-0.6,0.54-1.05,1.16-1.01
			c0.12,0.01,0.33-0.01,0.53-0.15c0.57-0.41,0.7-1.21,0.28-1.78c-0.6-0.83-1.78-1.02-2.61-0.41c-1.16,0.85-1.42,2.48-0.58,3.64
			c1.14,1.57,3.36,1.93,4.93,0.78c2.09-1.52,2.56-4.46,1.04-6.55c-1.17-1.61-3.04-2.52-5.04-2.53c0,0-0.01,0-0.01,0c0,0,0,0,0,0
			h-21.97c-0.6,0-1.09-0.49-1.09-1.09C510.1,620.72,510.59,620.23,511.19,620.23z"/>
		<path class="st15" d="M523.16,612.28c-0.6,0-1.09-0.49-1.09-1.09c0-0.6,0.49-1.09,1.09-1.09h18.59c0,0,0,0,0,0
			c0.03,0,0.06,0,0.08,0c1.96,0,3.81-0.94,4.96-2.53c1.52-2.09,1.05-5.03-1.04-6.55c-0.76-0.55-1.7-0.78-2.63-0.63
			c-0.93,0.15-1.75,0.65-2.3,1.41c-0.85,1.16-0.59,2.8,0.58,3.64c0.83,0.6,2,0.42,2.61-0.41c0.41-0.57,0.29-1.37-0.28-1.78
			c0,0,0,0,0,0c-0.09-0.07-0.19-0.11-0.3-0.14c-0.59-0.13-0.95-0.72-0.82-1.3c0.11-0.5,0.56-0.85,1.06-0.85
			c0.08,0,0.16,0.01,0.24,0.03c0.4,0.09,0.76,0.26,1.09,0.5c0,0,0,0,0,0c1.54,1.12,1.88,3.28,0.76,4.82
			c-1.31,1.8-3.85,2.21-5.65,0.9c-2.13-1.55-2.61-4.55-1.06-6.68c0.9-1.23,2.22-2.04,3.72-2.28c0.3-0.05,0.61-0.07,0.91-0.07
			c1.2,0,2.36,0.38,3.34,1.09c3.06,2.22,3.74,6.52,1.52,9.58c-1.56,2.15-4.07,3.42-6.72,3.42c-0.03,0-0.05,0-0.08,0c0,0,0,0,0,0
			H523.16z"/>
	</g>
</g>
<path class="st10" d="M158.07,660.52H679.1c0,0,5.4,19.05-15.67,19.05c-22,0-483.68-0.47-483.68-0.47S154.18,683.95,158.07,660.52z"
	/>
</svg>
